#!OML:ASF I:\Actors\actors\Patient Classification 2\Patient 1\Session 1\actor1.ASF
:FULLY-SPECIFIED
:DEGREES
325
root -0.975073 16.8912 4.75093 14.9038 -2.95811 -8.36156
lowerback 31.7275 0.46795 -6.53195
upperback 1.88102 -2.99264 -7.85952
thorax -14.652 -1.16383 -3.82625
lowerneck -19.8538 -3.82075 -6.86357
upperneck 17.2559 -5.01457 8.25748
head 9.07913 -1.91345 3.28621
rclavicle 9.54166e-015 -3.18055e-015
rhumerus -99.9023 31.5626 -75.2671
rradius 127.147
rwrist -51.8933
rhand 46.3321 -51.1467
rfingers 7.12502
rthumb 67.3871 -53.7691
lclavicle 9.54166e-015 -3.18055e-015
lhumerus -67.5507 -52.9732 51.2264
lradius 137.49
lwrist 68.3519
lhand 42.9864 0.403711
lfingers 7.12502
lthumb 64.8197 7.87786
rfemur -41.6255 -9.58191 25.5435
rtibia 57.6689
rfoot -24.9861 8.41038
rtoes -19.6993
lfemur -47.2348 19.0302 -6.05759
ltibia 65.0027
lfoot -25.0556 -6.94045
ltoes -57.1475
326
root -0.973962 16.8909 4.74172 14.8792 -2.84195 -8.48788
lowerback 31.8188 0.401819 -6.52097
upperback 1.9053 -3.06535 -7.76894
thorax -14.6579 -1.19215 -3.70187
lowerneck -19.8173 -3.84517 -6.95491
upperneck 17.0022 -4.98932 8.1772
head 8.98313 -1.9194 3.27361
rclavicle -2.22639e-014 1.59028e-014
rhumerus -98.6503 31.5731 -73.3233
rradius 127.52
rwrist -51.5606
rhand 48.0587 -51.7668
rfingers 7.12502
rthumb 68.6325 -51.4263
lclavicle -2.22639e-014 1.59028e-014
lhumerus -65.9808 -52.8611 48.4282
lradius 138.583
lwrist 68.5301
lhand 45.6752 1.63321
lfingers 7.12502
lthumb 66.8978 5.29551
rfemur -41.5992 -9.67859 25.6897
rtibia 57.6193
rfoot -24.8954 8.46746
rtoes -19.5781
lfemur -47.3841 19.1394 -5.87539
ltibia 65.1708
lfoot -24.6348 -7.28007
ltoes -57.4826
327
root -0.969857 16.8926 4.73933 14.87 -2.75646 -8.64155
lowerback 31.8479 0.374998 -6.52338
upperback 1.8773 -3.08703 -7.65053
thorax -14.6926 -1.19613 -3.56173
lowerneck -19.6969 -3.89191 -7.18288
upperneck 16.7048 -5.00077 8.29405
head 8.87024 -1.93257 3.3471
rclavicle -1.27222e-014 3.18055e-014
rhumerus -96.873 31.016 -71.8164
rradius 127.83
rwrist -50.7642
rhand 48.6034 -51.3234
rfingers 7.12502
rthumb 69.0119 -49.974
lclavicle -1.27222e-014 3.18055e-014
lhumerus -64.8061 -52.3098 47.0565
lradius 139.048
lwrist 68.0569
lhand 47.3891 0.271402
lfingers 7.12502
lthumb 68.1569 1.121
rfemur -41.4929 -9.73914 25.8703
rtibia 57.4747
rfoot -24.987 8.46889
rtoes -19.4403
lfemur -47.4687 19.2132 -5.67804
ltibia 65.2751
lfoot -24.36 -7.42142
ltoes -59.0173
328
root -0.962989 16.895 4.74335 14.8708 -2.74353 -8.8125
lowerback 31.7492 0.380604 -6.52649
upperback 1.83605 -3.05827 -7.55283
thorax -14.6873 -1.18043 -3.46483
lowerneck -19.5136 -3.95398 -7.33569
upperneck 16.3642 -5.04669 8.36248
head 8.73165 -1.96381 3.38622
rclavicle 3.18055e-015 -1.27222e-014
rhumerus -94.6583 29.8093 -70.9724
rradius 127.944
rwrist -49.4791
rhand 47.3749 -49.445
rfingers 7.12502
rthumb 68.1467 -50.3192
lclavicle 3.18055e-015 -1.27222e-014
lhumerus -62.3169 -50.7326 45.3203
lradius 139.663
lwrist 67.252
lhand 49.8501 2.69844
lfingers 7.12502
lthumb 69.8532 -1.10379
rfemur -41.3347 -9.75468 26.0672
rtibia 57.2543
rfoot -25.2007 8.44368
rtoes -19.3918
lfemur -47.4326 19.2012 -5.43363
ltibia 65.2895
lfoot -24.225 -7.59747
ltoes -59.2188
329
root -0.953013 16.8991 4.75188 14.8988 -2.77937 -8.95293
lowerback 31.5651 0.406484 -6.51496
upperback 1.7998 -2.99765 -7.51075
thorax -14.644 -1.1551 -3.44978
lowerneck -19.4956 -4.00667 -7.31709
upperneck 16.1931 -5.1114 8.34459
head 8.67492 -1.99676 3.36583
rclavicle -1.43125e-014 3.49861e-014
rhumerus -91.7667 28.0863 -70.4128
rradius 127.85
rwrist -47.4672
rhand 46.5996 -49.6239
rfingers 7.12502
rthumb 67.584 -51.8094
lclavicle -1.43125e-014 3.49861e-014
lhumerus -60.0091 -48.799 44.7784
lradius 139.712
lwrist 65.5444
lhand 49.737 3.89881
lfingers 7.12502
lthumb 69.7786 0.327609
rfemur -41.176 -9.70371 26.214
rtibia 56.9779
rfoot -25.4182 8.35752
rtoes -19.2744
lfemur -47.3122 19.0831 -5.2268
ltibia 65.2024
lfoot -24.237 -7.73734
ltoes -59.0823
330
root -0.938939 16.9069 4.76387 14.943 -2.86508 -8.97869
lowerback 31.3723 0.436824 -6.58954
upperback 1.70394 -2.97438 -7.51005
thorax -14.6656 -1.14064 -3.42013
lowerneck -19.4461 -4.04043 -7.25449
upperneck 16.1027 -5.16661 8.31128
head 8.63764 -2.02423 3.33548
rclavicle 1.74931e-014 -2.22639e-014
rhumerus -89.2325 26.2694 -71.1988
rradius 127.47
rwrist -45.2174
rhand 43.5523 -47.8365
rfingers 7.12502
rthumb 65.2663 -54.5637
lclavicle 1.74931e-014 -2.22639e-014
lhumerus -58.6449 -46.5971 46.0668
lradius 139.209
lwrist 62.8096
lhand 48.7216 4.46058
lfingers 7.12502
lthumb 69.0934 2.88738
rfemur -41.0097 -9.57329 26.1963
rtibia 56.6669
rfoot -25.6315 8.22848
rtoes -18.9926
lfemur -47.143 18.9055 -5.2359
ltibia 65.0322
lfoot -24.6042 -7.40928
ltoes -59.222
